<svg xmlns="http://www.w3.org/2000/svg" width="640" height="360" viewBox="0 0 640 360">
  <rect width="640" height="360" fill="#fff6f3"/>
  <circle cx="320" cy="180" r="110" fill="#6b3a2f"/>
  <ellipse cx="320" cy="260" rx="120" ry="30" fill="#e1c1b7"/>
  <rect x="177" y="185" width="2" height="8" rx="2" fill="#ffd166" transform="rotate(18 177 185)"/>
<rect x="500" y="160" width="5" height="12" rx="2" fill="#ff9aa2" transform="rotate(-33 500 160)"/>
<rect x="539" y="47" width="5" height="9" rx="2" fill="#ffdac1" transform="rotate(-45 539 47)"/>
<rect x="496" y="108" width="3" height="10" rx="2" fill="#ffd166" transform="rotate(-5 496 108)"/>
<rect x="71" y="45" width="2" height="11" rx="2" fill="#ffdac1" transform="rotate(-44 71 45)"/>
<rect x="430" y="215" width="3" height="9" rx="2" fill="#ffd166" transform="rotate(22 430 215)"/>
<rect x="267" y="235" width="5" height="9" rx="2" fill="#ffdac1" transform="rotate(-16 267 235)"/>
<rect x="393" y="99" width="3" height="12" rx="2" fill="#c7ceea" transform="rotate(-8 393 99)"/>
<rect x="62" y="146" width="2" height="7" rx="2" fill="#b5ead7" transform="rotate(-30 62 146)"/>
<rect x="380" y="224" width="5" height="10" rx="2" fill="#ff9aa2" transform="rotate(-7 380 224)"/>
<rect x="330" y="190" width="5" height="12" rx="2" fill="#ffdac1" transform="rotate(5 330 190)"/>
<rect x="75" y="162" width="3" height="11" rx="2" fill="#c7ceea" transform="rotate(8 75 162)"/>
<rect x="217" y="133" width="4" height="6" rx="2" fill="#c7ceea" transform="rotate(39 217 133)"/>
<rect x="560" y="67" width="3" height="10" rx="2" fill="#c7ceea" transform="rotate(2 560 67)"/>
<rect x="541" y="227" width="2" height="9" rx="2" fill="#ffd166" transform="rotate(-6 541 227)"/>
<rect x="443" y="205" width="3" height="7" rx="2" fill="#ffdac1" transform="rotate(-16 443 205)"/>
<rect x="52" y="237" width="3" height="10" rx="2" fill="#ffdac1" transform="rotate(-16 52 237)"/>
<rect x="454" y="171" width="4" height="12" rx="2" fill="#ffdac1" transform="rotate(0 454 171)"/>
<rect x="510" y="108" width="2" height="9" rx="2" fill="#ffdac1" transform="rotate(-29 510 108)"/>
<rect x="571" y="239" width="3" height="9" rx="2" fill="#ffd166" transform="rotate(16 571 239)"/>
<rect x="413" y="185" width="3" height="10" rx="2" fill="#c7ceea" transform="rotate(17 413 185)"/>
<rect x="405" y="146" width="4" height="6" rx="2" fill="#ffdac1" transform="rotate(24 405 146)"/>
<rect x="379" y="157" width="2" height="12" rx="2" fill="#ff9aa2" transform="rotate(36 379 157)"/>
<rect x="221" y="180" width="3" height="12" rx="2" fill="#ffd166" transform="rotate(25 221 180)"/>
<rect x="301" y="48" width="2" height="6" rx="2" fill="#ffd166" transform="rotate(12 301 48)"/>
<rect x="54" y="233" width="4" height="7" rx="2" fill="#b5ead7" transform="rotate(-31 54 233)"/>
<rect x="229" y="128" width="4" height="6" rx="2" fill="#ff9aa2" transform="rotate(-25 229 128)"/>
<rect x="301" y="175" width="3" height="11" rx="2" fill="#b5ead7" transform="rotate(37 301 175)"/>
<rect x="341" y="156" width="4" height="9" rx="2" fill="#c7ceea" transform="rotate(-31 341 156)"/>
<rect x="64" y="119" width="5" height="8" rx="2" fill="#c7ceea" transform="rotate(-21 64 119)"/>
<rect x="304" y="67" width="4" height="11" rx="2" fill="#ffdac1" transform="rotate(-19 304 67)"/>
<rect x="482" y="249" width="2" height="7" rx="2" fill="#ffd166" transform="rotate(5 482 249)"/>
<rect x="189" y="49" width="3" height="9" rx="2" fill="#ffdac1" transform="rotate(41 189 49)"/>
<rect x="476" y="179" width="3" height="11" rx="2" fill="#ffdac1" transform="rotate(12 476 179)"/>
<rect x="268" y="174" width="2" height="9" rx="2" fill="#ffdac1" transform="rotate(-4 268 174)"/>
<rect x="476" y="55" width="4" height="7" rx="2" fill="#ff9aa2" transform="rotate(-39 476 55)"/>
<rect x="353" y="58" width="2" height="8" rx="2" fill="#b5ead7" transform="rotate(-25 353 58)"/>
<rect x="466" y="184" width="4" height="7" rx="2" fill="#ffd166" transform="rotate(26 466 184)"/>
<rect x="78" y="191" width="3" height="10" rx="2" fill="#c7ceea" transform="rotate(-24 78 191)"/>
<rect x="561" y="49" width="5" height="7" rx="2" fill="#b5ead7" transform="rotate(-33 561 49)"/>
<rect x="250" y="186" width="5" height="10" rx="2" fill="#ff9aa2" transform="rotate(18 250 186)"/>
<rect x="146" y="210" width="5" height="8" rx="2" fill="#ffdac1" transform="rotate(18 146 210)"/>
<rect x="57" y="123" width="5" height="8" rx="2" fill="#ffd166" transform="rotate(-25 57 123)"/>
<rect x="245" y="259" width="4" height="12" rx="2" fill="#ffdac1" transform="rotate(-28 245 259)"/>
<rect x="387" y="149" width="3" height="8" rx="2" fill="#ffd166" transform="rotate(3 387 149)"/>
<rect x="600" y="128" width="5" height="12" rx="2" fill="#ffdac1" transform="rotate(-15 600 128)"/>
<rect x="106" y="225" width="2" height="6" rx="2" fill="#ff9aa2" transform="rotate(-24 106 225)"/>
<rect x="210" y="177" width="3" height="8" rx="2" fill="#b5ead7" transform="rotate(31 210 177)"/>
<rect x="558" y="255" width="4" height="8" rx="2" fill="#b5ead7" transform="rotate(-2 558 255)"/>
<rect x="156" y="114" width="3" height="12" rx="2" fill="#ffdac1" transform="rotate(17 156 114)"/>
<rect x="178" y="188" width="2" height="8" rx="2" fill="#ffd166" transform="rotate(7 178 188)"/>
<rect x="114" y="137" width="3" height="12" rx="2" fill="#ff9aa2" transform="rotate(-2 114 137)"/>
<rect x="157" y="197" width="5" height="6" rx="2" fill="#ffdac1" transform="rotate(25 157 197)"/>
<rect x="269" y="184" width="2" height="8" rx="2" fill="#b5ead7" transform="rotate(-8 269 184)"/>
<rect x="587" y="69" width="5" height="8" rx="2" fill="#ffd166" transform="rotate(-40 587 69)"/>
<rect x="342" y="43" width="2" height="6" rx="2" fill="#c7ceea" transform="rotate(-31 342 43)"/>
<rect x="80" y="88" width="3" height="12" rx="2" fill="#ffdac1" transform="rotate(8 80 88)"/>
<rect x="205" y="69" width="5" height="7" rx="2" fill="#ff9aa2" transform="rotate(-25 205 69)"/>
<rect x="145" y="151" width="5" height="12" rx="2" fill="#ffdac1" transform="rotate(-8 145 151)"/>
<rect x="299" y="222" width="5" height="8" rx="2" fill="#ffd166" transform="rotate(-19 299 222)"/>
<rect x="365" y="50" width="2" height="6" rx="2" fill="#b5ead7" transform="rotate(31 365 50)"/>
<rect x="367" y="155" width="5" height="8" rx="2" fill="#c7ceea" transform="rotate(-37 367 155)"/>
<rect x="105" y="121" width="5" height="6" rx="2" fill="#b5ead7" transform="rotate(-18 105 121)"/>
<rect x="595" y="216" width="5" height="11" rx="2" fill="#b5ead7" transform="rotate(-12 595 216)"/>
<rect x="227" y="178" width="3" height="8" rx="2" fill="#ff9aa2" transform="rotate(-14 227 178)"/>
<rect x="409" y="60" width="4" height="6" rx="2" fill="#c7ceea" transform="rotate(-34 409 60)"/>
<rect x="387" y="98" width="5" height="8" rx="2" fill="#ffd166" transform="rotate(-4 387 98)"/>
<rect x="231" y="121" width="4" height="7" rx="2" fill="#b5ead7" transform="rotate(-33 231 121)"/>
<rect x="597" y="196" width="2" height="7" rx="2" fill="#ff9aa2" transform="rotate(-43 597 196)"/>
<rect x="289" y="142" width="2" height="8" rx="2" fill="#ffdac1" transform="rotate(-36 289 142)"/>
<rect x="116" y="45" width="2" height="8" rx="2" fill="#b5ead7" transform="rotate(18 116 45)"/>
<rect x="520" y="260" width="3" height="6" rx="2" fill="#ffdac1" transform="rotate(-4 520 260)"/>
<rect x="118" y="170" width="3" height="7" rx="2" fill="#ff9aa2" transform="rotate(-27 118 170)"/>
<rect x="367" y="118" width="2" height="11" rx="2" fill="#ffdac1" transform="rotate(32 367 118)"/>
<rect x="340" y="72" width="3" height="7" rx="2" fill="#ffdac1" transform="rotate(-41 340 72)"/>
<rect x="363" y="250" width="3" height="7" rx="2" fill="#b5ead7" transform="rotate(10 363 250)"/>
<rect x="590" y="80" width="2" height="11" rx="2" fill="#ff9aa2" transform="rotate(-13 590 80)"/>
<rect x="105" y="214" width="5" height="12" rx="2" fill="#c7ceea" transform="rotate(25 105 214)"/>
<rect x="296" y="178" width="5" height="12" rx="2" fill="#ffdac1" transform="rotate(13 296 178)"/>
<rect x="51" y="141" width="4" height="7" rx="2" fill="#b5ead7" transform="rotate(17 51 141)"/>

  <text x="320" y="40" font-size="22" text-anchor="middle" fill="#6b3a2f" font-family="Arial">Brigadeiro Tradicional</text>
</svg>
