<svg xmlns="http://www.w3.org/2000/svg" width="640" height="360" viewBox="0 0 640 360">
  <rect width="640" height="360" fill="#fff6f3"/>
  <circle cx="320" cy="180" r="110" fill="#6b3a2f"/>
  <ellipse cx="320" cy="260" rx="120" ry="30" fill="#e1c1b7"/>
  <rect x="283" y="191" width="3" height="8" rx="2" fill="#ffdac1" transform="rotate(15 283 191)"/>
<rect x="107" y="195" width="2" height="12" rx="2" fill="#c7ceea" transform="rotate(-12 107 195)"/>
<rect x="279" y="89" width="5" height="10" rx="2" fill="#ffdac1" transform="rotate(15 279 89)"/>
<rect x="446" y="203" width="3" height="7" rx="2" fill="#ff9aa2" transform="rotate(21 446 203)"/>
<rect x="439" y="229" width="2" height="11" rx="2" fill="#ffd166" transform="rotate(-25 439 229)"/>
<rect x="83" y="117" width="2" height="12" rx="2" fill="#b5ead7" transform="rotate(15 83 117)"/>
<rect x="436" y="222" width="5" height="9" rx="2" fill="#ffdac1" transform="rotate(11 436 222)"/>
<rect x="177" y="133" width="2" height="6" rx="2" fill="#ff9aa2" transform="rotate(18 177 133)"/>
<rect x="262" y="106" width="5" height="12" rx="2" fill="#b5ead7" transform="rotate(8 262 106)"/>
<rect x="559" y="253" width="5" height="10" rx="2" fill="#b5ead7" transform="rotate(23 559 253)"/>
<rect x="457" y="189" width="3" height="8" rx="2" fill="#ffd166" transform="rotate(-10 457 189)"/>
<rect x="207" y="218" width="4" height="10" rx="2" fill="#ffdac1" transform="rotate(27 207 218)"/>
<rect x="146" y="222" width="3" height="11" rx="2" fill="#ffdac1" transform="rotate(-11 146 222)"/>
<rect x="331" y="71" width="2" height="9" rx="2" fill="#c7ceea" transform="rotate(-34 331 71)"/>
<rect x="392" y="244" width="2" height="9" rx="2" fill="#ff9aa2" transform="rotate(-43 392 244)"/>
<rect x="340" y="149" width="5" height="12" rx="2" fill="#ffd166" transform="rotate(-40 340 149)"/>
<rect x="86" y="136" width="4" height="10" rx="2" fill="#b5ead7" transform="rotate(19 86 136)"/>
<rect x="281" y="49" width="4" height="6" rx="2" fill="#ffd166" transform="rotate(-32 281 49)"/>
<rect x="588" y="48" width="3" height="9" rx="2" fill="#b5ead7" transform="rotate(33 588 48)"/>
<rect x="309" y="79" width="2" height="12" rx="2" fill="#b5ead7" transform="rotate(-5 309 79)"/>
<rect x="408" y="75" width="5" height="9" rx="2" fill="#c7ceea" transform="rotate(21 408 75)"/>
<rect x="435" y="204" width="2" height="10" rx="2" fill="#ffdac1" transform="rotate(-11 435 204)"/>
<rect x="481" y="202" width="3" height="8" rx="2" fill="#c7ceea" transform="rotate(-12 481 202)"/>
<rect x="573" y="117" width="4" height="6" rx="2" fill="#c7ceea" transform="rotate(29 573 117)"/>
<rect x="362" y="45" width="5" height="10" rx="2" fill="#ffdac1" transform="rotate(35 362 45)"/>
<rect x="176" y="55" width="4" height="9" rx="2" fill="#b5ead7" transform="rotate(41 176 55)"/>
<rect x="401" y="195" width="4" height="11" rx="2" fill="#c7ceea" transform="rotate(-43 401 195)"/>
<rect x="102" y="213" width="2" height="8" rx="2" fill="#b5ead7" transform="rotate(35 102 213)"/>
<rect x="507" y="116" width="4" height="7" rx="2" fill="#b5ead7" transform="rotate(-22 507 116)"/>
<rect x="360" y="234" width="4" height="12" rx="2" fill="#ffdac1" transform="rotate(-12 360 234)"/>
<rect x="347" y="241" width="5" height="6" rx="2" fill="#ffd166" transform="rotate(27 347 241)"/>
<rect x="174" y="119" width="3" height="11" rx="2" fill="#b5ead7" transform="rotate(-15 174 119)"/>
<rect x="375" y="87" width="5" height="11" rx="2" fill="#ffd166" transform="rotate(-32 375 87)"/>
<rect x="369" y="125" width="3" height="9" rx="2" fill="#ff9aa2" transform="rotate(-35 369 125)"/>
<rect x="384" y="229" width="3" height="10" rx="2" fill="#c7ceea" transform="rotate(-11 384 229)"/>
<rect x="270" y="241" width="2" height="6" rx="2" fill="#ffdac1" transform="rotate(-21 270 241)"/>
<rect x="362" y="246" width="3" height="12" rx="2" fill="#b5ead7" transform="rotate(-2 362 246)"/>
<rect x="127" y="246" width="4" height="10" rx="2" fill="#ff9aa2" transform="rotate(8 127 246)"/>
<rect x="338" y="172" width="4" height="9" rx="2" fill="#b5ead7" transform="rotate(36 338 172)"/>
<rect x="466" y="114" width="5" height="10" rx="2" fill="#c7ceea" transform="rotate(-41 466 114)"/>
<rect x="463" y="79" width="3" height="6" rx="2" fill="#c7ceea" transform="rotate(34 463 79)"/>
<rect x="562" y="151" width="3" height="6" rx="2" fill="#c7ceea" transform="rotate(39 562 151)"/>
<rect x="571" y="113" width="4" height="7" rx="2" fill="#ffd166" transform="rotate(30 571 113)"/>
<rect x="333" y="70" width="3" height="6" rx="2" fill="#ffd166" transform="rotate(43 333 70)"/>
<rect x="564" y="90" width="5" height="10" rx="2" fill="#ffd166" transform="rotate(-44 564 90)"/>
<rect x="532" y="230" width="2" height="7" rx="2" fill="#ffdac1" transform="rotate(-7 532 230)"/>
<rect x="284" y="209" width="2" height="10" rx="2" fill="#ffdac1" transform="rotate(7 284 209)"/>
<rect x="94" y="196" width="2" height="8" rx="2" fill="#ff9aa2" transform="rotate(-13 94 196)"/>
<rect x="593" y="162" width="2" height="8" rx="2" fill="#ff9aa2" transform="rotate(-20 593 162)"/>
<rect x="165" y="176" width="2" height="7" rx="2" fill="#ff9aa2" transform="rotate(-10 165 176)"/>
<rect x="171" y="250" width="2" height="9" rx="2" fill="#ffdac1" transform="rotate(6 171 250)"/>
<rect x="91" y="233" width="4" height="7" rx="2" fill="#b5ead7" transform="rotate(34 91 233)"/>
<rect x="579" y="173" width="5" height="6" rx="2" fill="#c7ceea" transform="rotate(-4 579 173)"/>
<rect x="41" y="259" width="2" height="12" rx="2" fill="#ff9aa2" transform="rotate(-40 41 259)"/>
<rect x="167" y="52" width="2" height="9" rx="2" fill="#ffd166" transform="rotate(-34 167 52)"/>
<rect x="567" y="168" width="5" height="8" rx="2" fill="#ff9aa2" transform="rotate(-5 567 168)"/>
<rect x="113" y="129" width="5" height="11" rx="2" fill="#c7ceea" transform="rotate(30 113 129)"/>
<rect x="351" y="132" width="4" height="7" rx="2" fill="#b5ead7" transform="rotate(9 351 132)"/>
<rect x="166" y="72" width="2" height="11" rx="2" fill="#c7ceea" transform="rotate(-35 166 72)"/>
<rect x="222" y="50" width="4" height="9" rx="2" fill="#ffdac1" transform="rotate(38 222 50)"/>
<rect x="594" y="137" width="2" height="10" rx="2" fill="#c7ceea" transform="rotate(-39 594 137)"/>
<rect x="421" y="200" width="5" height="12" rx="2" fill="#b5ead7" transform="rotate(8 421 200)"/>
<rect x="468" y="157" width="2" height="7" rx="2" fill="#ff9aa2" transform="rotate(23 468 157)"/>
<rect x="316" y="217" width="2" height="12" rx="2" fill="#c7ceea" transform="rotate(-17 316 217)"/>
<rect x="476" y="73" width="2" height="8" rx="2" fill="#b5ead7" transform="rotate(26 476 73)"/>
<rect x="308" y="71" width="5" height="11" rx="2" fill="#ffd166" transform="rotate(39 308 71)"/>
<rect x="582" y="242" width="5" height="11" rx="2" fill="#ffd166" transform="rotate(-5 582 242)"/>
<rect x="584" y="66" width="2" height="9" rx="2" fill="#ff9aa2" transform="rotate(-15 584 66)"/>
<rect x="438" y="51" width="2" height="10" rx="2" fill="#ffd166" transform="rotate(39 438 51)"/>
<rect x="424" y="85" width="2" height="8" rx="2" fill="#ffd166" transform="rotate(-42 424 85)"/>
<rect x="157" y="212" width="5" height="12" rx="2" fill="#b5ead7" transform="rotate(29 157 212)"/>
<rect x="346" y="244" width="2" height="6" rx="2" fill="#ffdac1" transform="rotate(20 346 244)"/>
<rect x="581" y="223" width="3" height="6" rx="2" fill="#ffdac1" transform="rotate(-33 581 223)"/>
<rect x="102" y="180" width="4" height="12" rx="2" fill="#ffdac1" transform="rotate(-22 102 180)"/>
<rect x="119" y="101" width="3" height="11" rx="2" fill="#ff9aa2" transform="rotate(13 119 101)"/>
<rect x="443" y="104" width="4" height="10" rx="2" fill="#c7ceea" transform="rotate(-1 443 104)"/>
<rect x="468" y="61" width="5" height="10" rx="2" fill="#ff9aa2" transform="rotate(7 468 61)"/>
<rect x="204" y="146" width="5" height="7" rx="2" fill="#c7ceea" transform="rotate(-26 204 146)"/>
<rect x="206" y="64" width="5" height="11" rx="2" fill="#c7ceea" transform="rotate(44 206 64)"/>
<rect x="569" y="153" width="3" height="7" rx="2" fill="#b5ead7" transform="rotate(-20 569 153)"/>

  <text x="320" y="40" font-size="22" text-anchor="middle" fill="#6b3a2f" font-family="Arial">Brigadeiro de Leite Ninho</text>
</svg>
