<svg xmlns="http://www.w3.org/2000/svg" width="640" height="360" viewBox="0 0 640 360">
  <rect width="640" height="360" fill="#fff6f3"/>
  <circle cx="320" cy="180" r="110" fill="#6b3a2f"/>
  <ellipse cx="320" cy="260" rx="120" ry="30" fill="#e1c1b7"/>
  <rect x="122" y="164" width="4" height="6" rx="2" fill="#ffd166" transform="rotate(-27 122 164)"/>
<rect x="521" y="234" width="4" height="8" rx="2" fill="#ffd166" transform="rotate(-11 521 234)"/>
<rect x="540" y="245" width="3" height="11" rx="2" fill="#c7ceea" transform="rotate(23 540 245)"/>
<rect x="592" y="214" width="2" height="7" rx="2" fill="#ffdac1" transform="rotate(25 592 214)"/>
<rect x="311" y="209" width="2" height="12" rx="2" fill="#c7ceea" transform="rotate(-3 311 209)"/>
<rect x="135" y="132" width="5" height="12" rx="2" fill="#b5ead7" transform="rotate(11 135 132)"/>
<rect x="136" y="233" width="3" height="11" rx="2" fill="#b5ead7" transform="rotate(-33 136 233)"/>
<rect x="86" y="190" width="3" height="12" rx="2" fill="#b5ead7" transform="rotate(17 86 190)"/>
<rect x="238" y="171" width="2" height="11" rx="2" fill="#b5ead7" transform="rotate(-14 238 171)"/>
<rect x="480" y="117" width="4" height="10" rx="2" fill="#ffd166" transform="rotate(-34 480 117)"/>
<rect x="552" y="213" width="3" height="6" rx="2" fill="#ffdac1" transform="rotate(39 552 213)"/>
<rect x="314" y="119" width="3" height="9" rx="2" fill="#c7ceea" transform="rotate(-17 314 119)"/>
<rect x="181" y="192" width="3" height="12" rx="2" fill="#ffdac1" transform="rotate(-44 181 192)"/>
<rect x="233" y="239" width="3" height="6" rx="2" fill="#b5ead7" transform="rotate(26 233 239)"/>
<rect x="353" y="135" width="5" height="10" rx="2" fill="#c7ceea" transform="rotate(-8 353 135)"/>
<rect x="169" y="213" width="5" height="6" rx="2" fill="#ff9aa2" transform="rotate(9 169 213)"/>
<rect x="447" y="64" width="5" height="7" rx="2" fill="#ffd166" transform="rotate(32 447 64)"/>
<rect x="496" y="154" width="5" height="12" rx="2" fill="#ffd166" transform="rotate(21 496 154)"/>
<rect x="476" y="160" width="4" height="11" rx="2" fill="#c7ceea" transform="rotate(-35 476 160)"/>
<rect x="236" y="231" width="4" height="9" rx="2" fill="#c7ceea" transform="rotate(-23 236 231)"/>
<rect x="58" y="45" width="2" height="8" rx="2" fill="#ffdac1" transform="rotate(1 58 45)"/>
<rect x="232" y="105" width="5" height="8" rx="2" fill="#ffdac1" transform="rotate(-13 232 105)"/>
<rect x="460" y="147" width="5" height="8" rx="2" fill="#ffdac1" transform="rotate(15 460 147)"/>
<rect x="530" y="165" width="3" height="11" rx="2" fill="#c7ceea" transform="rotate(18 530 165)"/>
<rect x="353" y="202" width="5" height="8" rx="2" fill="#b5ead7" transform="rotate(39 353 202)"/>
<rect x="206" y="198" width="5" height="11" rx="2" fill="#ffdac1" transform="rotate(-11 206 198)"/>
<rect x="367" y="205" width="5" height="9" rx="2" fill="#ff9aa2" transform="rotate(-8 367 205)"/>
<rect x="46" y="199" width="5" height="6" rx="2" fill="#ff9aa2" transform="rotate(-42 46 199)"/>
<rect x="154" y="214" width="4" height="8" rx="2" fill="#c7ceea" transform="rotate(30 154 214)"/>
<rect x="103" y="89" width="3" height="8" rx="2" fill="#ffdac1" transform="rotate(-44 103 89)"/>
<rect x="472" y="246" width="5" height="6" rx="2" fill="#c7ceea" transform="rotate(-16 472 246)"/>
<rect x="142" y="134" width="4" height="7" rx="2" fill="#ff9aa2" transform="rotate(32 142 134)"/>
<rect x="365" y="76" width="2" height="11" rx="2" fill="#ffd166" transform="rotate(-32 365 76)"/>
<rect x="86" y="205" width="5" height="9" rx="2" fill="#ffd166" transform="rotate(35 86 205)"/>
<rect x="71" y="219" width="3" height="10" rx="2" fill="#ffd166" transform="rotate(-25 71 219)"/>
<rect x="311" y="254" width="5" height="9" rx="2" fill="#ffd166" transform="rotate(36 311 254)"/>
<rect x="180" y="249" width="3" height="9" rx="2" fill="#c7ceea" transform="rotate(11 180 249)"/>
<rect x="497" y="182" width="4" height="9" rx="2" fill="#ffdac1" transform="rotate(-37 497 182)"/>
<rect x="338" y="133" width="4" height="8" rx="2" fill="#ffd166" transform="rotate(-35 338 133)"/>
<rect x="554" y="259" width="4" height="8" rx="2" fill="#b5ead7" transform="rotate(15 554 259)"/>
<rect x="481" y="153" width="4" height="6" rx="2" fill="#ffd166" transform="rotate(-14 481 153)"/>
<rect x="284" y="177" width="2" height="11" rx="2" fill="#ff9aa2" transform="rotate(-2 284 177)"/>
<rect x="419" y="48" width="2" height="11" rx="2" fill="#ff9aa2" transform="rotate(44 419 48)"/>
<rect x="483" y="127" width="2" height="7" rx="2" fill="#ffd166" transform="rotate(6 483 127)"/>
<rect x="600" y="74" width="5" height="11" rx="2" fill="#c7ceea" transform="rotate(36 600 74)"/>
<rect x="116" y="72" width="2" height="8" rx="2" fill="#ffdac1" transform="rotate(-42 116 72)"/>
<rect x="230" y="174" width="3" height="7" rx="2" fill="#b5ead7" transform="rotate(-26 230 174)"/>
<rect x="559" y="185" width="5" height="12" rx="2" fill="#ff9aa2" transform="rotate(-17 559 185)"/>
<rect x="168" y="147" width="3" height="12" rx="2" fill="#b5ead7" transform="rotate(-15 168 147)"/>
<rect x="44" y="241" width="5" height="7" rx="2" fill="#b5ead7" transform="rotate(3 44 241)"/>
<rect x="578" y="152" width="2" height="9" rx="2" fill="#ffdac1" transform="rotate(25 578 152)"/>
<rect x="179" y="223" width="3" height="11" rx="2" fill="#ffdac1" transform="rotate(2 179 223)"/>
<rect x="318" y="210" width="3" height="7" rx="2" fill="#ff9aa2" transform="rotate(43 318 210)"/>
<rect x="177" y="138" width="2" height="6" rx="2" fill="#ffd166" transform="rotate(-40 177 138)"/>
<rect x="523" y="234" width="2" height="6" rx="2" fill="#ffdac1" transform="rotate(-33 523 234)"/>
<rect x="416" y="192" width="2" height="6" rx="2" fill="#ffdac1" transform="rotate(-17 416 192)"/>
<rect x="456" y="97" width="4" height="6" rx="2" fill="#c7ceea" transform="rotate(-36 456 97)"/>
<rect x="100" y="83" width="5" height="6" rx="2" fill="#ffd166" transform="rotate(44 100 83)"/>
<rect x="222" y="52" width="2" height="12" rx="2" fill="#c7ceea" transform="rotate(38 222 52)"/>
<rect x="333" y="105" width="5" height="7" rx="2" fill="#ff9aa2" transform="rotate(38 333 105)"/>
<rect x="588" y="241" width="3" height="8" rx="2" fill="#ffdac1" transform="rotate(-44 588 241)"/>
<rect x="301" y="174" width="4" height="12" rx="2" fill="#ffdac1" transform="rotate(-34 301 174)"/>
<rect x="73" y="132" width="4" height="11" rx="2" fill="#ffd166" transform="rotate(-17 73 132)"/>
<rect x="68" y="132" width="4" height="9" rx="2" fill="#ffd166" transform="rotate(-1 68 132)"/>
<rect x="182" y="47" width="2" height="8" rx="2" fill="#ffd166" transform="rotate(17 182 47)"/>
<rect x="42" y="158" width="4" height="6" rx="2" fill="#ffdac1" transform="rotate(33 42 158)"/>
<rect x="319" y="98" width="3" height="7" rx="2" fill="#c7ceea" transform="rotate(24 319 98)"/>
<rect x="226" y="102" width="5" height="10" rx="2" fill="#c7ceea" transform="rotate(27 226 102)"/>
<rect x="569" y="200" width="5" height="8" rx="2" fill="#b5ead7" transform="rotate(-28 569 200)"/>
<rect x="346" y="48" width="3" height="12" rx="2" fill="#c7ceea" transform="rotate(-32 346 48)"/>
<rect x="220" y="187" width="2" height="12" rx="2" fill="#ffd166" transform="rotate(20 220 187)"/>
<rect x="204" y="70" width="3" height="10" rx="2" fill="#c7ceea" transform="rotate(15 204 70)"/>
<rect x="537" y="260" width="5" height="7" rx="2" fill="#c7ceea" transform="rotate(-26 537 260)"/>
<rect x="509" y="258" width="2" height="8" rx="2" fill="#c7ceea" transform="rotate(-13 509 258)"/>
<rect x="367" y="74" width="4" height="8" rx="2" fill="#ffdac1" transform="rotate(41 367 74)"/>
<rect x="411" y="97" width="2" height="12" rx="2" fill="#b5ead7" transform="rotate(-23 411 97)"/>
<rect x="124" y="144" width="3" height="11" rx="2" fill="#ffd166" transform="rotate(-21 124 144)"/>
<rect x="429" y="145" width="3" height="12" rx="2" fill="#ff9aa2" transform="rotate(21 429 145)"/>
<rect x="91" y="173" width="5" height="8" rx="2" fill="#b5ead7" transform="rotate(30 91 173)"/>
<rect x="439" y="109" width="2" height="8" rx="2" fill="#ff9aa2" transform="rotate(-40 439 109)"/>

  <text x="320" y="40" font-size="22" text-anchor="middle" fill="#6b3a2f" font-family="Arial">Brigadeiro Meio Amargo</text>
</svg>
