<svg xmlns="http://www.w3.org/2000/svg" width="640" height="360" viewBox="0 0 640 360">
  <rect width="640" height="360" fill="#fff6f3"/>
  <circle cx="320" cy="180" r="110" fill="#6b3a2f"/>
  <ellipse cx="320" cy="260" rx="120" ry="30" fill="#e1c1b7"/>
  <rect x="281" y="117" width="2" height="11" rx="2" fill="#c7ceea" transform="rotate(16 281 117)"/>
<rect x="198" y="63" width="2" height="6" rx="2" fill="#c7ceea" transform="rotate(25 198 63)"/>
<rect x="336" y="244" width="2" height="7" rx="2" fill="#ffdac1" transform="rotate(23 336 244)"/>
<rect x="408" y="110" width="3" height="12" rx="2" fill="#ffd166" transform="rotate(-12 408 110)"/>
<rect x="259" y="46" width="4" height="12" rx="2" fill="#b5ead7" transform="rotate(-21 259 46)"/>
<rect x="208" y="119" width="4" height="11" rx="2" fill="#b5ead7" transform="rotate(-34 208 119)"/>
<rect x="385" y="211" width="5" height="10" rx="2" fill="#ff9aa2" transform="rotate(-23 385 211)"/>
<rect x="293" y="161" width="4" height="6" rx="2" fill="#ffdac1" transform="rotate(-7 293 161)"/>
<rect x="47" y="114" width="4" height="12" rx="2" fill="#ffdac1" transform="rotate(-21 47 114)"/>
<rect x="463" y="148" width="4" height="9" rx="2" fill="#c7ceea" transform="rotate(-25 463 148)"/>
<rect x="278" y="118" width="4" height="12" rx="2" fill="#ffd166" transform="rotate(-35 278 118)"/>
<rect x="87" y="158" width="4" height="10" rx="2" fill="#ffdac1" transform="rotate(37 87 158)"/>
<rect x="522" y="219" width="4" height="7" rx="2" fill="#ff9aa2" transform="rotate(-37 522 219)"/>
<rect x="462" y="91" width="5" height="8" rx="2" fill="#ff9aa2" transform="rotate(0 462 91)"/>
<rect x="486" y="231" width="4" height="11" rx="2" fill="#ffdac1" transform="rotate(-20 486 231)"/>
<rect x="371" y="65" width="2" height="11" rx="2" fill="#ff9aa2" transform="rotate(-10 371 65)"/>
<rect x="283" y="71" width="4" height="7" rx="2" fill="#b5ead7" transform="rotate(13 283 71)"/>
<rect x="66" y="50" width="4" height="11" rx="2" fill="#ffd166" transform="rotate(-9 66 50)"/>
<rect x="374" y="44" width="4" height="8" rx="2" fill="#b5ead7" transform="rotate(-26 374 44)"/>
<rect x="460" y="260" width="2" height="8" rx="2" fill="#ffdac1" transform="rotate(-21 460 260)"/>
<rect x="494" y="114" width="3" height="8" rx="2" fill="#c7ceea" transform="rotate(31 494 114)"/>
<rect x="202" y="124" width="2" height="8" rx="2" fill="#ffd166" transform="rotate(13 202 124)"/>
<rect x="213" y="133" width="4" height="8" rx="2" fill="#ffdac1" transform="rotate(-33 213 133)"/>
<rect x="489" y="93" width="5" height="7" rx="2" fill="#ffd166" transform="rotate(-38 489 93)"/>
<rect x="103" y="54" width="3" height="10" rx="2" fill="#ff9aa2" transform="rotate(32 103 54)"/>
<rect x="81" y="179" width="5" height="10" rx="2" fill="#ff9aa2" transform="rotate(-4 81 179)"/>
<rect x="76" y="71" width="4" height="12" rx="2" fill="#c7ceea" transform="rotate(38 76 71)"/>
<rect x="245" y="162" width="3" height="7" rx="2" fill="#c7ceea" transform="rotate(7 245 162)"/>
<rect x="543" y="49" width="3" height="9" rx="2" fill="#c7ceea" transform="rotate(-14 543 49)"/>
<rect x="478" y="252" width="3" height="9" rx="2" fill="#ff9aa2" transform="rotate(-41 478 252)"/>
<rect x="77" y="105" width="4" height="7" rx="2" fill="#ffdac1" transform="rotate(-19 77 105)"/>
<rect x="277" y="146" width="4" height="7" rx="2" fill="#b5ead7" transform="rotate(-39 277 146)"/>
<rect x="362" y="184" width="2" height="10" rx="2" fill="#c7ceea" transform="rotate(38 362 184)"/>
<rect x="81" y="166" width="5" height="6" rx="2" fill="#c7ceea" transform="rotate(-19 81 166)"/>
<rect x="209" y="126" width="4" height="11" rx="2" fill="#c7ceea" transform="rotate(37 209 126)"/>
<rect x="362" y="248" width="5" height="10" rx="2" fill="#ff9aa2" transform="rotate(38 362 248)"/>
<rect x="314" y="126" width="5" height="9" rx="2" fill="#ffd166" transform="rotate(-10 314 126)"/>
<rect x="235" y="51" width="5" height="10" rx="2" fill="#ff9aa2" transform="rotate(-11 235 51)"/>
<rect x="101" y="82" width="5" height="10" rx="2" fill="#c7ceea" transform="rotate(6 101 82)"/>
<rect x="439" y="95" width="2" height="7" rx="2" fill="#ff9aa2" transform="rotate(-44 439 95)"/>
<rect x="303" y="69" width="5" height="12" rx="2" fill="#c7ceea" transform="rotate(-17 303 69)"/>
<rect x="94" y="91" width="3" height="11" rx="2" fill="#ffdac1" transform="rotate(-3 94 91)"/>
<rect x="522" y="174" width="5" height="6" rx="2" fill="#ffd166" transform="rotate(-41 522 174)"/>
<rect x="155" y="165" width="4" height="10" rx="2" fill="#ff9aa2" transform="rotate(-40 155 165)"/>
<rect x="411" y="60" width="2" height="8" rx="2" fill="#b5ead7" transform="rotate(-36 411 60)"/>
<rect x="127" y="179" width="5" height="9" rx="2" fill="#ff9aa2" transform="rotate(-6 127 179)"/>
<rect x="437" y="99" width="5" height="12" rx="2" fill="#c7ceea" transform="rotate(-33 437 99)"/>
<rect x="119" y="69" width="4" height="10" rx="2" fill="#c7ceea" transform="rotate(8 119 69)"/>
<rect x="494" y="57" width="3" height="11" rx="2" fill="#b5ead7" transform="rotate(16 494 57)"/>
<rect x="472" y="70" width="3" height="8" rx="2" fill="#ff9aa2" transform="rotate(-23 472 70)"/>
<rect x="192" y="123" width="5" height="12" rx="2" fill="#b5ead7" transform="rotate(-12 192 123)"/>
<rect x="594" y="41" width="3" height="6" rx="2" fill="#b5ead7" transform="rotate(-30 594 41)"/>
<rect x="598" y="68" width="5" height="12" rx="2" fill="#ffdac1" transform="rotate(16 598 68)"/>
<rect x="578" y="59" width="3" height="9" rx="2" fill="#b5ead7" transform="rotate(0 578 59)"/>
<rect x="274" y="236" width="3" height="12" rx="2" fill="#ffd166" transform="rotate(41 274 236)"/>
<rect x="94" y="196" width="4" height="10" rx="2" fill="#c7ceea" transform="rotate(27 94 196)"/>
<rect x="352" y="169" width="5" height="10" rx="2" fill="#ffdac1" transform="rotate(11 352 169)"/>
<rect x="441" y="76" width="4" height="12" rx="2" fill="#ffdac1" transform="rotate(1 441 76)"/>
<rect x="388" y="74" width="5" height="6" rx="2" fill="#ffdac1" transform="rotate(-27 388 74)"/>
<rect x="221" y="113" width="4" height="7" rx="2" fill="#ffdac1" transform="rotate(-1 221 113)"/>
<rect x="135" y="59" width="5" height="11" rx="2" fill="#ff9aa2" transform="rotate(-3 135 59)"/>
<rect x="420" y="123" width="3" height="8" rx="2" fill="#ffd166" transform="rotate(32 420 123)"/>
<rect x="60" y="174" width="2" height="12" rx="2" fill="#b5ead7" transform="rotate(-33 60 174)"/>
<rect x="202" y="86" width="5" height="11" rx="2" fill="#ffdac1" transform="rotate(-36 202 86)"/>
<rect x="159" y="84" width="5" height="11" rx="2" fill="#ff9aa2" transform="rotate(34 159 84)"/>
<rect x="350" y="258" width="5" height="10" rx="2" fill="#ff9aa2" transform="rotate(17 350 258)"/>
<rect x="266" y="119" width="4" height="7" rx="2" fill="#b5ead7" transform="rotate(23 266 119)"/>
<rect x="582" y="155" width="5" height="10" rx="2" fill="#c7ceea" transform="rotate(-5 582 155)"/>
<rect x="330" y="152" width="5" height="10" rx="2" fill="#ffd166" transform="rotate(-13 330 152)"/>
<rect x="228" y="178" width="5" height="11" rx="2" fill="#ffdac1" transform="rotate(33 228 178)"/>
<rect x="413" y="143" width="5" height="10" rx="2" fill="#ffd166" transform="rotate(-26 413 143)"/>
<rect x="563" y="57" width="5" height="11" rx="2" fill="#b5ead7" transform="rotate(32 563 57)"/>
<rect x="359" y="63" width="4" height="9" rx="2" fill="#ff9aa2" transform="rotate(36 359 63)"/>
<rect x="528" y="194" width="2" height="7" rx="2" fill="#ff9aa2" transform="rotate(-37 528 194)"/>
<rect x="346" y="73" width="2" height="7" rx="2" fill="#c7ceea" transform="rotate(29 346 73)"/>
<rect x="600" y="222" width="4" height="6" rx="2" fill="#ffdac1" transform="rotate(-14 600 222)"/>
<rect x="201" y="232" width="2" height="7" rx="2" fill="#ffd166" transform="rotate(-5 201 232)"/>
<rect x="123" y="71" width="4" height="6" rx="2" fill="#b5ead7" transform="rotate(33 123 71)"/>
<rect x="216" y="227" width="3" height="11" rx="2" fill="#c7ceea" transform="rotate(-29 216 227)"/>
<rect x="123" y="183" width="4" height="11" rx="2" fill="#ffd166" transform="rotate(25 123 183)"/>

  <text x="320" y="40" font-size="22" text-anchor="middle" fill="#6b3a2f" font-family="Arial">Brigadeiro de Nutella</text>
</svg>
