<svg xmlns="http://www.w3.org/2000/svg" width="640" height="360" viewBox="0 0 640 360">
  <rect width="640" height="360" fill="#fff6f3"/>
  <circle cx="320" cy="180" r="110" fill="#6b3a2f"/>
  <ellipse cx="320" cy="260" rx="120" ry="30" fill="#e1c1b7"/>
  <rect x="301" y="229" width="4" height="12" rx="2" fill="#ffdac1" transform="rotate(-42 301 229)"/>
<rect x="516" y="238" width="3" height="11" rx="2" fill="#ffd166" transform="rotate(-25 516 238)"/>
<rect x="155" y="135" width="5" height="12" rx="2" fill="#ff9aa2" transform="rotate(3 155 135)"/>
<rect x="596" y="66" width="3" height="6" rx="2" fill="#ff9aa2" transform="rotate(7 596 66)"/>
<rect x="326" y="86" width="5" height="7" rx="2" fill="#ffd166" transform="rotate(-28 326 86)"/>
<rect x="495" y="72" width="3" height="6" rx="2" fill="#ffd166" transform="rotate(-19 495 72)"/>
<rect x="260" y="82" width="3" height="8" rx="2" fill="#b5ead7" transform="rotate(-20 260 82)"/>
<rect x="592" y="213" width="3" height="7" rx="2" fill="#ff9aa2" transform="rotate(4 592 213)"/>
<rect x="345" y="45" width="4" height="9" rx="2" fill="#ff9aa2" transform="rotate(-27 345 45)"/>
<rect x="310" y="56" width="4" height="8" rx="2" fill="#ffdac1" transform="rotate(30 310 56)"/>
<rect x="43" y="192" width="4" height="6" rx="2" fill="#b5ead7" transform="rotate(0 43 192)"/>
<rect x="353" y="163" width="4" height="7" rx="2" fill="#c7ceea" transform="rotate(15 353 163)"/>
<rect x="220" y="54" width="4" height="6" rx="2" fill="#b5ead7" transform="rotate(6 220 54)"/>
<rect x="58" y="180" width="5" height="8" rx="2" fill="#c7ceea" transform="rotate(29 58 180)"/>
<rect x="49" y="155" width="2" height="11" rx="2" fill="#ff9aa2" transform="rotate(34 49 155)"/>
<rect x="241" y="70" width="3" height="12" rx="2" fill="#c7ceea" transform="rotate(-1 241 70)"/>
<rect x="564" y="130" width="4" height="12" rx="2" fill="#c7ceea" transform="rotate(-32 564 130)"/>
<rect x="416" y="260" width="4" height="6" rx="2" fill="#c7ceea" transform="rotate(-34 416 260)"/>
<rect x="253" y="127" width="4" height="7" rx="2" fill="#b5ead7" transform="rotate(-10 253 127)"/>
<rect x="598" y="63" width="4" height="11" rx="2" fill="#b5ead7" transform="rotate(-6 598 63)"/>
<rect x="221" y="244" width="2" height="11" rx="2" fill="#ff9aa2" transform="rotate(43 221 244)"/>
<rect x="356" y="163" width="3" height="11" rx="2" fill="#ffd166" transform="rotate(-35 356 163)"/>
<rect x="586" y="143" width="2" height="7" rx="2" fill="#ffdac1" transform="rotate(-1 586 143)"/>
<rect x="296" y="156" width="5" height="7" rx="2" fill="#ffd166" transform="rotate(36 296 156)"/>
<rect x="73" y="245" width="5" height="8" rx="2" fill="#ff9aa2" transform="rotate(-29 73 245)"/>
<rect x="175" y="201" width="5" height="6" rx="2" fill="#ff9aa2" transform="rotate(10 175 201)"/>
<rect x="421" y="78" width="2" height="12" rx="2" fill="#c7ceea" transform="rotate(-8 421 78)"/>
<rect x="184" y="156" width="3" height="10" rx="2" fill="#c7ceea" transform="rotate(17 184 156)"/>
<rect x="365" y="162" width="4" height="8" rx="2" fill="#c7ceea" transform="rotate(6 365 162)"/>
<rect x="190" y="68" width="5" height="12" rx="2" fill="#ffdac1" transform="rotate(-23 190 68)"/>
<rect x="551" y="126" width="3" height="6" rx="2" fill="#c7ceea" transform="rotate(-11 551 126)"/>
<rect x="567" y="240" width="4" height="6" rx="2" fill="#b5ead7" transform="rotate(43 567 240)"/>
<rect x="75" y="234" width="4" height="8" rx="2" fill="#ffdac1" transform="rotate(45 75 234)"/>
<rect x="327" y="253" width="5" height="8" rx="2" fill="#b5ead7" transform="rotate(-2 327 253)"/>
<rect x="222" y="188" width="2" height="9" rx="2" fill="#ffdac1" transform="rotate(-13 222 188)"/>
<rect x="373" y="211" width="4" height="9" rx="2" fill="#b5ead7" transform="rotate(19 373 211)"/>
<rect x="405" y="129" width="4" height="11" rx="2" fill="#b5ead7" transform="rotate(7 405 129)"/>
<rect x="398" y="255" width="3" height="12" rx="2" fill="#c7ceea" transform="rotate(1 398 255)"/>
<rect x="382" y="172" width="3" height="10" rx="2" fill="#ff9aa2" transform="rotate(-20 382 172)"/>
<rect x="410" y="258" width="5" height="8" rx="2" fill="#ffd166" transform="rotate(40 410 258)"/>
<rect x="466" y="83" width="5" height="8" rx="2" fill="#ffdac1" transform="rotate(25 466 83)"/>
<rect x="317" y="224" width="2" height="7" rx="2" fill="#ff9aa2" transform="rotate(30 317 224)"/>
<rect x="491" y="199" width="3" height="7" rx="2" fill="#ff9aa2" transform="rotate(35 491 199)"/>
<rect x="82" y="160" width="3" height="7" rx="2" fill="#ffd166" transform="rotate(-28 82 160)"/>
<rect x="153" y="121" width="3" height="9" rx="2" fill="#ff9aa2" transform="rotate(25 153 121)"/>
<rect x="76" y="146" width="5" height="8" rx="2" fill="#c7ceea" transform="rotate(39 76 146)"/>
<rect x="113" y="191" width="3" height="7" rx="2" fill="#b5ead7" transform="rotate(-45 113 191)"/>
<rect x="398" y="143" width="4" height="12" rx="2" fill="#c7ceea" transform="rotate(-31 398 143)"/>
<rect x="600" y="135" width="2" height="10" rx="2" fill="#ffdac1" transform="rotate(-7 600 135)"/>
<rect x="137" y="115" width="4" height="10" rx="2" fill="#b5ead7" transform="rotate(0 137 115)"/>
<rect x="172" y="147" width="5" height="12" rx="2" fill="#ffdac1" transform="rotate(37 172 147)"/>
<rect x="591" y="134" width="5" height="7" rx="2" fill="#ff9aa2" transform="rotate(31 591 134)"/>
<rect x="431" y="184" width="5" height="7" rx="2" fill="#ff9aa2" transform="rotate(32 431 184)"/>
<rect x="133" y="129" width="2" height="9" rx="2" fill="#ffd166" transform="rotate(-4 133 129)"/>
<rect x="592" y="76" width="4" height="11" rx="2" fill="#ffdac1" transform="rotate(3 592 76)"/>
<rect x="479" y="150" width="3" height="9" rx="2" fill="#b5ead7" transform="rotate(16 479 150)"/>
<rect x="428" y="138" width="3" height="10" rx="2" fill="#ffdac1" transform="rotate(-12 428 138)"/>
<rect x="348" y="167" width="4" height="9" rx="2" fill="#ffd166" transform="rotate(-5 348 167)"/>
<rect x="354" y="165" width="4" height="7" rx="2" fill="#c7ceea" transform="rotate(-42 354 165)"/>
<rect x="164" y="208" width="5" height="7" rx="2" fill="#b5ead7" transform="rotate(-40 164 208)"/>
<rect x="179" y="251" width="5" height="6" rx="2" fill="#c7ceea" transform="rotate(23 179 251)"/>
<rect x="320" y="102" width="5" height="12" rx="2" fill="#ffd166" transform="rotate(-14 320 102)"/>
<rect x="541" y="108" width="3" height="11" rx="2" fill="#b5ead7" transform="rotate(-8 541 108)"/>
<rect x="544" y="195" width="5" height="10" rx="2" fill="#ffdac1" transform="rotate(-30 544 195)"/>
<rect x="56" y="234" width="3" height="8" rx="2" fill="#b5ead7" transform="rotate(23 56 234)"/>
<rect x="384" y="197" width="4" height="11" rx="2" fill="#ffdac1" transform="rotate(-42 384 197)"/>
<rect x="515" y="129" width="4" height="11" rx="2" fill="#ffdac1" transform="rotate(-29 515 129)"/>
<rect x="77" y="40" width="4" height="10" rx="2" fill="#c7ceea" transform="rotate(42 77 40)"/>
<rect x="150" y="215" width="3" height="6" rx="2" fill="#c7ceea" transform="rotate(9 150 215)"/>
<rect x="533" y="259" width="5" height="9" rx="2" fill="#c7ceea" transform="rotate(42 533 259)"/>
<rect x="241" y="115" width="5" height="12" rx="2" fill="#ffd166" transform="rotate(-7 241 115)"/>
<rect x="43" y="217" width="5" height="10" rx="2" fill="#b5ead7" transform="rotate(37 43 217)"/>
<rect x="523" y="119" width="3" height="7" rx="2" fill="#c7ceea" transform="rotate(43 523 119)"/>
<rect x="549" y="124" width="3" height="9" rx="2" fill="#ffdac1" transform="rotate(24 549 124)"/>
<rect x="89" y="57" width="3" height="8" rx="2" fill="#ffd166" transform="rotate(-37 89 57)"/>
<rect x="66" y="125" width="5" height="6" rx="2" fill="#c7ceea" transform="rotate(44 66 125)"/>
<rect x="538" y="52" width="2" height="12" rx="2" fill="#ffd166" transform="rotate(-17 538 52)"/>
<rect x="153" y="222" width="3" height="8" rx="2" fill="#c7ceea" transform="rotate(-26 153 222)"/>
<rect x="227" y="196" width="3" height="9" rx="2" fill="#ff9aa2" transform="rotate(-37 227 196)"/>
<rect x="258" y="51" width="2" height="11" rx="2" fill="#c7ceea" transform="rotate(-36 258 51)"/>

  <text x="320" y="40" font-size="22" text-anchor="middle" fill="#6b3a2f" font-family="Arial">Brigadeiro de Paçoca</text>
</svg>
