<svg xmlns="http://www.w3.org/2000/svg" width="640" height="360" viewBox="0 0 640 360">
  <rect width="640" height="360" fill="#fff6f3"/>
  <circle cx="320" cy="180" r="110" fill="#6b3a2f"/>
  <ellipse cx="320" cy="260" rx="120" ry="30" fill="#e1c1b7"/>
  <rect x="371" y="78" width="5" height="11" rx="2" fill="#ffd166" transform="rotate(-36 371 78)"/>
<rect x="588" y="64" width="4" height="10" rx="2" fill="#ffd166" transform="rotate(19 588 64)"/>
<rect x="259" y="49" width="2" height="9" rx="2" fill="#c7ceea" transform="rotate(-37 259 49)"/>
<rect x="286" y="63" width="5" height="6" rx="2" fill="#ffdac1" transform="rotate(-30 286 63)"/>
<rect x="268" y="201" width="2" height="10" rx="2" fill="#ffdac1" transform="rotate(5 268 201)"/>
<rect x="90" y="96" width="2" height="10" rx="2" fill="#ff9aa2" transform="rotate(-8 90 96)"/>
<rect x="469" y="76" width="2" height="10" rx="2" fill="#b5ead7" transform="rotate(26 469 76)"/>
<rect x="225" y="66" width="3" height="8" rx="2" fill="#ffd166" transform="rotate(25 225 66)"/>
<rect x="104" y="184" width="2" height="10" rx="2" fill="#ff9aa2" transform="rotate(18 104 184)"/>
<rect x="584" y="149" width="4" height="9" rx="2" fill="#ffdac1" transform="rotate(13 584 149)"/>
<rect x="410" y="116" width="3" height="12" rx="2" fill="#ff9aa2" transform="rotate(44 410 116)"/>
<rect x="289" y="60" width="4" height="10" rx="2" fill="#c7ceea" transform="rotate(-2 289 60)"/>
<rect x="499" y="113" width="2" height="6" rx="2" fill="#ffdac1" transform="rotate(8 499 113)"/>
<rect x="208" y="233" width="4" height="7" rx="2" fill="#c7ceea" transform="rotate(8 208 233)"/>
<rect x="80" y="211" width="2" height="12" rx="2" fill="#ffdac1" transform="rotate(28 80 211)"/>
<rect x="361" y="127" width="4" height="10" rx="2" fill="#c7ceea" transform="rotate(29 361 127)"/>
<rect x="507" y="57" width="2" height="8" rx="2" fill="#c7ceea" transform="rotate(44 507 57)"/>
<rect x="106" y="55" width="4" height="11" rx="2" fill="#ffdac1" transform="rotate(42 106 55)"/>
<rect x="496" y="112" width="5" height="11" rx="2" fill="#b5ead7" transform="rotate(-43 496 112)"/>
<rect x="512" y="130" width="3" height="10" rx="2" fill="#ffd166" transform="rotate(18 512 130)"/>
<rect x="100" y="95" width="4" height="7" rx="2" fill="#ff9aa2" transform="rotate(5 100 95)"/>
<rect x="440" y="167" width="2" height="7" rx="2" fill="#c7ceea" transform="rotate(6 440 167)"/>
<rect x="324" y="75" width="5" height="12" rx="2" fill="#ffdac1" transform="rotate(-10 324 75)"/>
<rect x="465" y="131" width="5" height="7" rx="2" fill="#ff9aa2" transform="rotate(-35 465 131)"/>
<rect x="220" y="78" width="3" height="11" rx="2" fill="#ff9aa2" transform="rotate(-44 220 78)"/>
<rect x="536" y="252" width="3" height="8" rx="2" fill="#b5ead7" transform="rotate(-45 536 252)"/>
<rect x="189" y="147" width="4" height="10" rx="2" fill="#ffdac1" transform="rotate(-5 189 147)"/>
<rect x="168" y="216" width="2" height="9" rx="2" fill="#ffdac1" transform="rotate(5 168 216)"/>
<rect x="447" y="142" width="5" height="6" rx="2" fill="#c7ceea" transform="rotate(36 447 142)"/>
<rect x="450" y="55" width="3" height="6" rx="2" fill="#ff9aa2" transform="rotate(11 450 55)"/>
<rect x="206" y="68" width="4" height="10" rx="2" fill="#ffd166" transform="rotate(-32 206 68)"/>
<rect x="40" y="185" width="3" height="10" rx="2" fill="#ffd166" transform="rotate(1 40 185)"/>
<rect x="66" y="58" width="3" height="10" rx="2" fill="#c7ceea" transform="rotate(-26 66 58)"/>
<rect x="298" y="128" width="4" height="9" rx="2" fill="#ffd166" transform="rotate(-31 298 128)"/>
<rect x="539" y="159" width="5" height="9" rx="2" fill="#b5ead7" transform="rotate(-35 539 159)"/>
<rect x="187" y="66" width="4" height="11" rx="2" fill="#b5ead7" transform="rotate(16 187 66)"/>
<rect x="205" y="172" width="2" height="7" rx="2" fill="#ffdac1" transform="rotate(1 205 172)"/>
<rect x="190" y="216" width="2" height="12" rx="2" fill="#ffdac1" transform="rotate(-7 190 216)"/>
<rect x="133" y="218" width="4" height="10" rx="2" fill="#b5ead7" transform="rotate(-24 133 218)"/>
<rect x="404" y="237" width="3" height="10" rx="2" fill="#ffdac1" transform="rotate(19 404 237)"/>
<rect x="377" y="202" width="3" height="10" rx="2" fill="#ff9aa2" transform="rotate(-15 377 202)"/>
<rect x="450" y="229" width="3" height="7" rx="2" fill="#ffdac1" transform="rotate(18 450 229)"/>
<rect x="404" y="227" width="2" height="6" rx="2" fill="#b5ead7" transform="rotate(15 404 227)"/>
<rect x="305" y="89" width="4" height="9" rx="2" fill="#b5ead7" transform="rotate(1 305 89)"/>
<rect x="122" y="96" width="2" height="7" rx="2" fill="#c7ceea" transform="rotate(-20 122 96)"/>
<rect x="385" y="92" width="5" height="10" rx="2" fill="#ffdac1" transform="rotate(-45 385 92)"/>
<rect x="530" y="207" width="4" height="12" rx="2" fill="#ffd166" transform="rotate(39 530 207)"/>
<rect x="162" y="139" width="3" height="9" rx="2" fill="#ff9aa2" transform="rotate(10 162 139)"/>
<rect x="380" y="62" width="5" height="9" rx="2" fill="#c7ceea" transform="rotate(-35 380 62)"/>
<rect x="202" y="83" width="3" height="6" rx="2" fill="#ff9aa2" transform="rotate(30 202 83)"/>
<rect x="516" y="246" width="3" height="10" rx="2" fill="#ffdac1" transform="rotate(15 516 246)"/>
<rect x="398" y="79" width="3" height="6" rx="2" fill="#ffd166" transform="rotate(38 398 79)"/>
<rect x="145" y="174" width="3" height="9" rx="2" fill="#ff9aa2" transform="rotate(-18 145 174)"/>
<rect x="68" y="104" width="3" height="8" rx="2" fill="#ffdac1" transform="rotate(-15 68 104)"/>
<rect x="373" y="106" width="5" height="12" rx="2" fill="#ff9aa2" transform="rotate(-38 373 106)"/>
<rect x="402" y="157" width="5" height="12" rx="2" fill="#ffdac1" transform="rotate(-29 402 157)"/>
<rect x="584" y="78" width="2" height="12" rx="2" fill="#c7ceea" transform="rotate(-22 584 78)"/>
<rect x="44" y="238" width="3" height="7" rx="2" fill="#ff9aa2" transform="rotate(15 44 238)"/>
<rect x="163" y="182" width="2" height="8" rx="2" fill="#ffdac1" transform="rotate(22 163 182)"/>
<rect x="534" y="240" width="2" height="10" rx="2" fill="#ffd166" transform="rotate(-14 534 240)"/>
<rect x="235" y="110" width="2" height="12" rx="2" fill="#ffd166" transform="rotate(19 235 110)"/>
<rect x="503" y="183" width="2" height="12" rx="2" fill="#ffd166" transform="rotate(11 503 183)"/>
<rect x="373" y="196" width="3" height="11" rx="2" fill="#b5ead7" transform="rotate(12 373 196)"/>
<rect x="560" y="176" width="5" height="10" rx="2" fill="#ff9aa2" transform="rotate(44 560 176)"/>
<rect x="575" y="106" width="3" height="12" rx="2" fill="#c7ceea" transform="rotate(-28 575 106)"/>
<rect x="466" y="71" width="5" height="9" rx="2" fill="#b5ead7" transform="rotate(-36 466 71)"/>
<rect x="286" y="149" width="2" height="7" rx="2" fill="#b5ead7" transform="rotate(-30 286 149)"/>
<rect x="198" y="223" width="4" height="7" rx="2" fill="#b5ead7" transform="rotate(-28 198 223)"/>
<rect x="518" y="96" width="2" height="9" rx="2" fill="#c7ceea" transform="rotate(-25 518 96)"/>
<rect x="269" y="81" width="5" height="10" rx="2" fill="#c7ceea" transform="rotate(-2 269 81)"/>
<rect x="471" y="90" width="4" height="8" rx="2" fill="#ffd166" transform="rotate(1 471 90)"/>
<rect x="59" y="126" width="5" height="9" rx="2" fill="#ffd166" transform="rotate(4 59 126)"/>
<rect x="379" y="172" width="4" height="10" rx="2" fill="#ffd166" transform="rotate(-31 379 172)"/>
<rect x="274" y="66" width="2" height="8" rx="2" fill="#b5ead7" transform="rotate(-40 274 66)"/>
<rect x="225" y="109" width="3" height="12" rx="2" fill="#c7ceea" transform="rotate(41 225 109)"/>
<rect x="304" y="143" width="3" height="10" rx="2" fill="#ffdac1" transform="rotate(28 304 143)"/>
<rect x="546" y="219" width="4" height="6" rx="2" fill="#b5ead7" transform="rotate(-38 546 219)"/>
<rect x="227" y="148" width="2" height="8" rx="2" fill="#ffd166" transform="rotate(36 227 148)"/>
<rect x="130" y="245" width="4" height="6" rx="2" fill="#ffdac1" transform="rotate(-17 130 245)"/>
<rect x="108" y="107" width="2" height="9" rx="2" fill="#ffd166" transform="rotate(-2 108 107)"/>

  <text x="320" y="40" font-size="22" text-anchor="middle" fill="#6b3a2f" font-family="Arial">Brigadeiro de Coco (Beijinho)</text>
</svg>
